<?xml version="1.0" encoding="utf-8"?>
<svg xmlns="http://www.w3.org/2000/svg" viewBox="0 0 180 265" xmlns:bx="https://boxy-svg.com">
  <defs>
    <bx:export>
      <bx:file format="svg"/>
    </bx:export>
    <style bx:fonts="Roboto Mono">@import url(https://fonts.googleapis.com/css2?family=Roboto+Mono%3Aital%2Cwght%400%2C100..700%3B1%2C100..700&amp;display=swap);</style>
  </defs>
  <path style="stroke: rgb(194, 216, 251); fill-opacity: 0.4;" d="M 0.5 0.5 L 0.5 30.5 L 9.45 38.5 L 22.378 38.5 L 31.328 33.5 L 37.294 24.5 L 142.706 24.5 L 147.678 33.5 L 157.622 38.5 L 170.55 38.5 L 179.5 30.5 L 179.5 0.5 L 0.5 0.5 Z"/>
  <g transform="matrix(1, 0, 0, 1, -237.733002, 24.364)">
    <path style="fill: rgb(174, 203, 250); stroke: rgb(24, 100, 171);" d="M 245.283 1.811 L 247.345 -0.006 L 244.774 -5.195 L 245.298 -8.766 L 250.011 -13.717 L 256.152 -15.669 L 260.722 -14.479 L 265.959 -6.005 L 262.817 2.66 L 254.724 5.04 L 251.248 4.278 L 248.44 1.708 L 246.726 3.469 L 249.535 5.802 L 254.2 7.42 L 264.531 4.469 L 268.244 -6.148 L 262.484 -16.097 L 255.819 -17.526 L 248.821 -15.574 L 243.536 -9.432 L 242.298 -3.529 L 245.283 1.811 Z"/>
    <path style="fill: rgb(174, 203, 250); stroke: rgb(24, 100, 171);" d="M 242.937 -15.613 L 251.19 -7.016 L 241.733 -6.93 L 250.158 -4.007 L 242.507 1.409 L 250.674 -1.256 L 248.009 8.028 L 255.402 -1.6 L 258.497 7.169 L 258.497 -2.546 L 270.103 0.463 L 259.873 -6.414 L 266.063 -17.762 L 257.122 -8.993 L 254.199 -18.364 L 251.877 -10.283 L 242.937 -15.613 Z"/>
  </g>
  <g stroke-linecap="round" transform="matrix(1, 0, 0, 1, 277.822449, -43.536392)"/>
  <rect x="7" y="45" width="166" height="105" style="stroke: rgb(194, 216, 251); fill-opacity: 0.6;" rx="6" ry="6"/>
  <text style="fill: rgb(102, 157, 246); font-family: &quot;Roboto Mono&quot;; font-size: 12px; white-space: pre;" transform="matrix(1, 0, 0, 1, -3.942993, -2.654978)"><tspan x="15.412" y="63.315" style="font-size: 13px;">%header_1%</tspan><tspan x="15.412" dy="1em"/><tspan style="font-size: 13px;">%header_2%</tspan><tspan x="15.412" dy="1em"/><tspan style="font-size: 10px;">%text_01%</tspan><tspan x="15.412" dy="1em"/><tspan style="font-size: 10px;">%text_02%</tspan><tspan x="15.412" dy="1em"/><tspan style="font-size: 10px;">%text_03%</tspan><tspan x="15.412" dy="1em"/><tspan style="font-size: 10px;">%text_04%</tspan><tspan x="15.412" dy="1em"/><tspan style="font-size: 10px;">%text_05%</tspan><tspan x="15.412" dy="1em"/><tspan style="font-size: 10px;">%text_06%</tspan><tspan x="15.412" dy="1em"/></text>
  <rect x="7" y="155" width="80" height="30" style="fill-opacity: 0.6; stroke: rgb(194, 216, 251);" rx="4" ry="4"/>
  <g transform="matrix(0.633046, 0, 0, 0.625642, -121.851189, 76.274658)" style="">
    <path style="stroke: rgb(24, 100, 171); fill: rgb(174, 203, 250); stroke-linecap: round; stroke-linejoin: round;" d="M 222.144 149.843 L 225.32 150.66 L 228.679 147.301 L 227.59 143.761 L 222.144 149.843 Z"/>
    <path style="stroke: rgb(102, 157, 246); fill: rgb(174, 203, 250); stroke-linecap: round; stroke-linejoin: round;" d="M 210.526 154.471 L 211.887 159.554 L 216.97 154.744 L 220.056 155.924 L 224.776 151.204 L 216.698 148.753 L 210.526 154.471 Z"/>
    <path style="stroke: rgb(24, 100, 171); fill: rgb(102, 157, 246); stroke-linecap: round; stroke-linejoin: round;" d="M 216.425 163.122 L 221.508 164.302 L 227.226 158.765 L 224.957 151.05 L 219.874 156.042 L 220.782 158.674 L 216.425 163.122 Z"/>
    <path style="stroke: rgb(24, 100, 171); fill: rgb(102, 157, 246); stroke-linecap: round; stroke-linejoin: round;" d="M 229.006 147.029 L 225.049 151.035 L 225.877 154.108 L 231.584 148.233 L 229.006 147.029 Z"/>
    <path style="stroke-width: 1; stroke: rgb(102, 157, 246); fill: rgb(174, 203, 250); stroke-linecap: round; stroke-linejoin: round; transform-box: fill-box; transform-origin: 50% 50%;" d="M 226.319 145.939 L 231.402 147.119 L 237.12 141.582 L 234.851 133.867 L 229.768 138.859 L 230.676 141.491 L 226.319 145.939 Z" transform="matrix(-1, 0, 0, -1, 0.000015, -0.000004)"/>
    <path style="stroke-width: 1; stroke: rgb(24, 100, 171); fill: rgb(102, 157, 246); stroke-linecap: round; stroke-linejoin: round; transform-box: fill-box; transform-origin: 50% 50%;" d="M 228.769 144.578 L 230.13 149.661 L 235.213 144.851 L 238.299 146.031 L 243.019 141.311 L 234.941 138.86 L 228.769 144.578 Z" transform="matrix(-1, 0, 0, -1, -0.000003, 0.000002)"/>
  </g>
  <rect x="7" y="190" width="166" height="30" style="fill-opacity: 0.6; stroke: rgb(194, 216, 251); stroke-width: 1;" rx="4" ry="4"/>
  <path style="stroke: rgb(230, 73, 128); fill: rgb(252, 194, 215); stroke-linecap: round; stroke-linejoin: round;" d="M 16.217 195.307 L 10.376 204.291 L 20.73 204.291 L 26.483 195.307 L 16.217 195.307 Z"/>
  <path style="stroke: rgb(230, 73, 128); fill: rgb(247, 131, 172); stroke-linecap: round; stroke-linejoin: round;" d="M 10.68 205.83 L 20.691 205.83 L 26.572 214.138 L 15.862 214.049 L 10.68 205.83 Z"/>
  <path style="stroke: rgb(194, 37, 92); fill: rgb(230, 73, 128); stroke-linecap: round; stroke-linejoin: round;" d="M 22.197 204.966 L 27.93 213.401 L 33.173 204.749 L 27.984 195.675 L 22.197 204.966 Z"/>
  <rect x="93" y="155" width="80" height="30" style="fill-opacity: 0.6; stroke: rgb(194, 216, 251); stroke-width: 1;" rx="4" ry="4"/>
  <path style="stroke: rgb(102, 157, 246); fill: none; stroke-linecap: round; stroke-linejoin: round;" d="M 97.215 170.69 L 101.73 162.114 L 104.253 166 L 101.775 170.466 L 104.564 174.665 L 102.439 178.596 L 97.215 170.69 Z"/>
  <path style="stroke: rgb(102, 157, 246); fill: none; stroke-linecap: round; stroke-linejoin: round;" d="M 103.988 179.444 L 105.98 175.469 L 111.072 175.156 L 113.374 170.6 L 118.11 170.332 L 113.595 179.131 L 103.988 179.444 Z"/>
  <path style="stroke: rgb(102, 157, 246); fill: none; stroke-linecap: round; stroke-linejoin: round;" d="M 103.059 161.444 L 105.537 165.33 L 110.584 164.928 L 113.418 169.394 L 118.287 169.082 L 112.798 160.863 L 103.059 161.444 Z"/>
  <path style="stroke: rgb(24, 100, 171); fill: rgb(102, 157, 246); stroke-linecap: round; stroke-linecap: round; stroke-linejoin: round;" d="M 105.316 166.983 L 103.456 170.6 L 104.253 171.762 L 110.54 167.563 L 109.743 166.491 L 105.316 166.983 Z"/>
  <path style="stroke: rgb(24, 100, 171); fill: rgb(102, 157, 246); stroke-linecap: round; stroke-linejoin: round;" d="M 105.006 172.789 L 105.892 174.04 L 110.142 173.817 C 110.142 173.817 112.09 169.931 112.09 169.886 C 112.09 169.841 111.381 168.635 111.381 168.635 L 105.006 172.789 Z"/>
  <text style="fill: rgb(102, 157, 246); font-family: &quot;Roboto Mono&quot;; font-size: 12px; white-space: pre;" x="35" y="174.422">%COST%</text>
  <text style="fill: rgb(102, 157, 246); font-family: &quot;Roboto Mono&quot;; font-size: 12px; white-space: pre;" x="35" y="208.725">%DIECE_LOSS%</text>
  <text style="fill: rgb(102, 157, 246); font-family: &quot;Roboto Mono&quot;; font-size: 12px; white-space: pre;" x="121" y="173.925">%LOSS%</text>
  <text style="fill: rgb(102, 157, 246); font-family: &quot;Roboto Mono&quot;; font-size: 19px; text-anchor: middle; white-space: pre;" x="90" y="19.497">СБОЙ</text>
  <ellipse style="stroke: rgb(24, 100, 171); fill: rgb(174, 203, 250);" cx="161.339" cy="18.583" rx="15" ry="15"/>
  <ellipse style="stroke: rgb(24, 100, 171); fill: rgb(245, 232, 123);" cx="161.504" cy="18.651" rx="13" ry="13"/>
  <path style="stroke-linecap: round; stroke-linejoin: round; fill: rgb(253, 253, 253); stroke: rgb(24, 100, 171);" d="M 152.847 15.455 C 152.257 15.389 152.796 12.065 153.386 12.131 C 153.143 11.402 155.475 9.839 155.62 10.273 C 157.014 9.678 156.849 11.724 156.867 11.68 C 156.885 11.636 155.894 13.628 155.217 13.712 C 154.76 13.986 152.678 15.557 152.847 15.455 Z"/>
</svg>